HIERARCHY
ROOT newVegas:Hips
{
	OFFSET 0.000000 96.479958 0.000000
	CHANNELS 6 Xposition Yposition Zposition Xrotation Yrotation Zrotation
	JOINT newVegas:Pelvis
	{
		OFFSET 0.000000 0.000000 0.000000
		CHANNELS 3 Xrotation Yrotation Zrotation
		JOINT newVegas:LeftUpLeg
		{
			OFFSET 18.735201 -5.666702 -4.541200
			CHANNELS 3 Xrotation Yrotation Zrotation
			JOINT newVegas:LeftLeg
			{
				OFFSET -0.021200 -31.938179 0.493100
				CHANNELS 3 Xrotation Yrotation Zrotation
				JOINT newVegas:LeftFoot
				{
					OFFSET 0.021200 -31.938179 -4.336299
					CHANNELS 3 Xrotation Yrotation Zrotation
					JOINT newVegas:LeftToeBase
					{
						OFFSET 0.943001 -26.722000 15.023500
						CHANNELS 3 Xrotation Yrotation Zrotation
						End Site
						{
							OFFSET 0.000000 30.670183 0.000000
						}
					}
				}
				JOINT newVegas:Left_PantLeg
				{
					OFFSET 0.663870 -9.044666 -1.108900
					CHANNELS 3 Xrotation Yrotation Zrotation
					End Site
					{
						OFFSET 1.415995 20.635357 0.000000
					}
				}
			}
		}
		JOINT newVegas:RightUpLeg
		{
			OFFSET -18.735201 -5.666702 -4.541200
			CHANNELS 3 Xrotation Yrotation Zrotation
			JOINT newVegas:RightLeg
			{
				OFFSET 0.018946 -31.938133 0.493100
				CHANNELS 3 Xrotation Yrotation Zrotation
				JOINT newVegas:RightFoot
				{
					OFFSET -0.018946 -31.938126 -4.336299
					CHANNELS 3 Xrotation Yrotation Zrotation
					JOINT newVegas:RightToeBase
					{
						OFFSET -0.943001 -26.722004 15.023500
						CHANNELS 3 Xrotation Yrotation Zrotation
						End Site
						{
							OFFSET 0.000000 30.670187 0.000000
						}
					}
				}
				JOINT newVegas:Right_PantLeg
				{
					OFFSET -0.661674 -9.044716 -1.108900
					CHANNELS 3 Xrotation Yrotation Zrotation
					End Site
					{
						OFFSET -1.415958 20.635269 0.000000
					}
				}
			}
		}
	}
	JOINT newVegas:Spine
	{
		OFFSET 0.000000 10.199997 -0.299500
		CHANNELS 3 Xrotation Yrotation Zrotation
		JOINT newVegas:Spine1
		{
			OFFSET 0.000000 11.900002 -1.516600
			CHANNELS 3 Xrotation Yrotation Zrotation
			JOINT newVegas:Spine2
			{
				OFFSET 0.000000 13.600006 -2.842500
				CHANNELS 3 Xrotation Yrotation Zrotation
				JOINT newVegas:Neck
				{
					OFFSET 0.000000 9.624100 -2.890100
					CHANNELS 3 Xrotation Yrotation Zrotation
					JOINT newVegas:Head
					{
						OFFSET 0.000000 14.068802 -1.351900
						CHANNELS 3 Xrotation Yrotation Zrotation
						JOINT newVegas:Hair_Back
						{
							OFFSET 0.000000 3.231903 -17.524799
							CHANNELS 3 Xrotation Yrotation Zrotation
							End Site
							{
								OFFSET 0.000000 19.849884 0.000000
							}
						}
						JOINT newVegas:Hair_Front
						{
							OFFSET 0.000000 31.260406 4.573800
							CHANNELS 3 Xrotation Yrotation Zrotation
							JOINT newVegas:Hair_Front1
							{
								OFFSET 0.000000 2.284103 11.993300
								CHANNELS 3 Xrotation Yrotation Zrotation
								JOINT newVegas:Hair_Front2
								{
									OFFSET 0.000000 2.284103 11.993300
									CHANNELS 3 Xrotation Yrotation Zrotation
									End Site
									{
										OFFSET 0.000000 12.208862 0.000000
									}
								}
							}
						}
						JOINT newVegas:Jowel
						{
							OFFSET 0.000000 -7.458206 6.864100
							CHANNELS 3 Xrotation Yrotation Zrotation
							End Site
							{
								OFFSET 0.000000 19.849884 0.000000
							}
						}
					}
				}
				JOINT newVegas:LeftShoulder
				{
					OFFSET 15.263000 10.923401 -0.547700
					CHANNELS 3 Xrotation Yrotation Zrotation
					JOINT newVegas:LeftArm
					{
						OFFSET 25.438599 -2.830597 -13.032500
						CHANNELS 3 Xrotation Yrotation Zrotation
						JOINT newVegas:LeftForeArm
						{
							OFFSET 29.960503 0.000000 0.000000
							CHANNELS 3 Xrotation Yrotation Zrotation
							JOINT newVegas:LeftHand
							{
								OFFSET 27.849251 0.000000 0.000000
								CHANNELS 3 Xrotation Yrotation Zrotation
								JOINT newVegas:LeftHandThumb1
								{
									OFFSET 4.487587 -3.305161 6.305391
									CHANNELS 3 Xrotation Yrotation Zrotation
									JOINT newVegas:LeftHandThumb2
									{
										OFFSET 5.480453 -3.164139 3.164143
										CHANNELS 3 Xrotation Yrotation Zrotation
										JOINT newVegas:LeftHandThumb3
										{
											OFFSET 5.159721 -2.978973 2.978967
											CHANNELS 3 Xrotation Yrotation Zrotation
											End Site
											{
												OFFSET 2.494507 5.926697 1.738678
											}
										}
									}
								}
								JOINT newVegas:LeftHandIndex1
								{
									OFFSET 18.578728 -0.527832 5.208049
									CHANNELS 3 Xrotation Yrotation Zrotation
									JOINT newVegas:LeftHandIndex2
									{
										OFFSET 3.192009 0.000000 0.000000
										CHANNELS 3 Xrotation Yrotation Zrotation
										JOINT newVegas:LeftHandIndex3
										{
											OFFSET 3.835129 0.000000 0.000000
											CHANNELS 3 Xrotation Yrotation Zrotation
											End Site
											{
												OFFSET -0.034599 3.816971 0.371180
											}
										}
									}
								}
								JOINT newVegas:LeftHandMiddle1
								{
									OFFSET 18.476105 0.000000 0.000000
									CHANNELS 3 Xrotation Yrotation Zrotation
									JOINT newVegas:LeftHandMiddle2
									{
										OFFSET 3.324875 0.000000 0.000000
										CHANNELS 3 Xrotation Yrotation Zrotation
										JOINT newVegas:LeftHandMiddle3
										{
											OFFSET 4.596550 0.000000 0.000000
											CHANNELS 3 Xrotation Yrotation Zrotation
											End Site
											{
												OFFSET 0.057701 4.578827 0.399218
											}
										}
									}
								}
								JOINT newVegas:LeftHandRing1
								{
									OFFSET 17.732719 0.121887 -4.201567
									CHANNELS 3 Xrotation Yrotation Zrotation
									JOINT newVegas:LeftHandRing2
									{
										OFFSET 2.733170 0.000000 0.000000
										CHANNELS 3 Xrotation Yrotation Zrotation
										JOINT newVegas:LeftHandRing3
										{
											OFFSET 3.178268 0.000000 0.000000
											CHANNELS 3 Xrotation Yrotation Zrotation
											End Site
											{
												OFFSET 0.119102 3.170624 0.185394
											}
										}
									}
								}
								JOINT newVegas:LeftHandPinky1
								{
									OFFSET 15.989624 -0.606689 -7.535461
									CHANNELS 3 Xrotation Yrotation Zrotation
									JOINT newVegas:LeftHandPinky2
									{
										OFFSET 2.538986 0.000000 0.000000
										CHANNELS 3 Xrotation Yrotation Zrotation
										JOINT newVegas:LeftHandPinky3
										{
											OFFSET 2.593102 0.000000 0.000000
											CHANNELS 3 Xrotation Yrotation Zrotation
											End Site
											{
												OFFSET -0.150902 2.584198 0.152708
											}
										}
									}
								}
							}
							JOINT newVegas:Left_Sleeve
							{
								OFFSET 0.267448 -0.649796 0.577675
								CHANNELS 3 Xrotation Yrotation Zrotation
								End Site
								{
									OFFSET 0.000000 15.991241 0.000000
								}
							}
							JOINT newVegas:Left_CapeC
							{
								OFFSET 15.715958 -8.608795 -6.935905
								CHANNELS 3 Xrotation Yrotation Zrotation
								JOINT newVegas:Left_CapeC1
								{
									OFFSET 0.000000 -8.688499 0.000000
									CHANNELS 3 Xrotation Yrotation Zrotation
									End Site
									{
										OFFSET 0.000000 8.688499 0.000000
									}
								}
							}
						}
						JOINT newVegas:Left_CapeB
						{
							OFFSET 26.118385 -8.608795 -7.079235
							CHANNELS 3 Xrotation Yrotation Zrotation
							JOINT newVegas:Left_CapeB1
							{
								OFFSET 0.000000 -8.688499 0.000000
								CHANNELS 3 Xrotation Yrotation Zrotation
								End Site
								{
									OFFSET 0.000000 8.688499 0.000000
								}
							}
						}
						JOINT newVegas:Left_CapeA
						{
							OFFSET 5.115639 -8.608795 -10.395809
							CHANNELS 3 Xrotation Yrotation Zrotation
							JOINT newVegas:Left_CapeA1
							{
								OFFSET 0.000000 -8.688499 0.000000
								CHANNELS 3 Xrotation Yrotation Zrotation
								End Site
								{
									OFFSET 0.000000 8.688499 0.000000
								}
							}
						}
					}
				}
				JOINT newVegas:RightShoulder
				{
					OFFSET -15.263000 10.923401 -0.547700
					CHANNELS 3 Xrotation Yrotation Zrotation
					JOINT newVegas:RightArm
					{
						OFFSET -25.438599 -2.830597 -13.032500
						CHANNELS 3 Xrotation Yrotation Zrotation
						JOINT newVegas:RightForeArm
						{
							OFFSET -29.960503 0.000000 0.000000
							CHANNELS 3 Xrotation Yrotation Zrotation
							JOINT newVegas:RightHand
							{
								OFFSET -27.849251 0.000000 0.000000
								CHANNELS 3 Xrotation Yrotation Zrotation
								JOINT newVegas:RightHandThumb1
								{
									OFFSET -4.487587 -3.305161 6.305391
									CHANNELS 3 Xrotation Yrotation Zrotation
									JOINT newVegas:RightHandThumb2
									{
										OFFSET -5.480453 -3.164139 3.164143
										CHANNELS 3 Xrotation Yrotation Zrotation
										JOINT newVegas:RightHandThumb3
										{
											OFFSET -5.159721 -2.978973 2.978967
											CHANNELS 3 Xrotation Yrotation Zrotation
											End Site
											{
												OFFSET -2.494507 5.926697 1.738678
											}
										}
									}
								}
								JOINT newVegas:RightHandIndex1
								{
									OFFSET -18.578728 -0.527832 5.208049
									CHANNELS 3 Xrotation Yrotation Zrotation
									JOINT newVegas:RightHandIndex2
									{
										OFFSET -3.192009 0.000000 0.000000
										CHANNELS 3 Xrotation Yrotation Zrotation
										JOINT newVegas:RightHandIndex3
										{
											OFFSET -3.835129 0.000000 0.000000
											CHANNELS 3 Xrotation Yrotation Zrotation
											End Site
											{
												OFFSET 0.034599 3.816971 0.371180
											}
										}
									}
								}
								JOINT newVegas:RightHandMiddle1
								{
									OFFSET -18.476105 0.000000 0.000000
									CHANNELS 3 Xrotation Yrotation Zrotation
									JOINT newVegas:RightHandMiddle2
									{
										OFFSET -3.324875 0.000000 0.000000
										CHANNELS 3 Xrotation Yrotation Zrotation
										JOINT newVegas:RightHandMiddle3
										{
											OFFSET -4.596550 0.000000 0.000000
											CHANNELS 3 Xrotation Yrotation Zrotation
											End Site
											{
												OFFSET -0.057701 4.578827 0.399218
											}
										}
									}
								}
								JOINT newVegas:RightHandRing1
								{
									OFFSET -17.732719 0.121887 -4.201567
									CHANNELS 3 Xrotation Yrotation Zrotation
									JOINT newVegas:RightHandRing2
									{
										OFFSET -2.733170 0.000000 0.000000
										CHANNELS 3 Xrotation Yrotation Zrotation
										JOINT newVegas:RightHandRing3
										{
											OFFSET -3.178268 0.000000 0.000000
											CHANNELS 3 Xrotation Yrotation Zrotation
											End Site
											{
												OFFSET -0.119102 3.170624 0.185394
											}
										}
									}
								}
								JOINT newVegas:RightHandPinky1
								{
									OFFSET -15.989624 -0.606689 -7.535461
									CHANNELS 3 Xrotation Yrotation Zrotation
									JOINT newVegas:RightHandPinky2
									{
										OFFSET -2.538986 0.000000 0.000000
										CHANNELS 3 Xrotation Yrotation Zrotation
										JOINT newVegas:RightHandPinky3
										{
											OFFSET -2.593102 0.000000 0.000000
											CHANNELS 3 Xrotation Yrotation Zrotation
											End Site
											{
												OFFSET 0.150902 2.584198 0.152708
											}
										}
									}
								}
							}
							JOINT newVegas:Right_CapeC
							{
								OFFSET -15.715958 -8.608795 -6.935905
								CHANNELS 3 Xrotation Yrotation Zrotation
								JOINT newVegas:Right_CapeC1
								{
									OFFSET 0.000000 -8.688499 0.000000
									CHANNELS 3 Xrotation Yrotation Zrotation
									End Site
									{
										OFFSET 0.000000 8.688499 0.000000
									}
								}
							}
							JOINT newVegas:Right_Sleeve
							{
								OFFSET -0.267448 -0.649994 0.577675
								CHANNELS 3 Xrotation Yrotation Zrotation
								End Site
								{
									OFFSET 0.000000 15.991302 0.000000
								}
							}
						}
						JOINT newVegas:Right_CapeA
						{
							OFFSET -5.115540 -8.608795 -10.395824
							CHANNELS 3 Xrotation Yrotation Zrotation
							JOINT newVegas:Right_CapeA1
							{
								OFFSET 0.000000 -8.688499 0.000000
								CHANNELS 3 Xrotation Yrotation Zrotation
								End Site
								{
									OFFSET 0.000000 8.688499 0.000000
								}
							}
						}
						JOINT newVegas:Right_CapeB
						{
							OFFSET -26.118187 -8.608795 -7.079266
							CHANNELS 3 Xrotation Yrotation Zrotation
							JOINT newVegas:Right_CapeB1
							{
								OFFSET 0.000000 -8.688499 0.000000
								CHANNELS 3 Xrotation Yrotation Zrotation
								End Site
								{
									OFFSET 0.000000 8.688499 0.000000
								}
							}
						}
					}
				}
				JOINT newVegas:Left_Collar
				{
					OFFSET 18.625099 8.655502 8.828100
					CHANNELS 3 Xrotation Yrotation Zrotation
					JOINT newVegas:Left_Collar1
					{
						OFFSET 14.783401 10.540405 -1.259500
						CHANNELS 3 Xrotation Yrotation Zrotation
						End Site
						{
							OFFSET 0.000000 18.199875 0.000000
						}
					}
				}
				JOINT newVegas:Collar_Back
				{
					OFFSET 0.000000 15.630707 -20.132601
					CHANNELS 3 Xrotation Yrotation Zrotation
					End Site
					{
						OFFSET 0.000000 22.523010 0.000000
					}
				}
				JOINT newVegas:Left_Peck
				{
					OFFSET 17.239599 -5.132599 25.482599
					CHANNELS 3 Xrotation Yrotation Zrotation
					End Site
					{
						OFFSET 0.000000 22.523010 0.000000
					}
				}
				JOINT newVegas:Right_Peck
				{
					OFFSET -17.239599 -5.132202 25.482599
					CHANNELS 3 Xrotation Yrotation Zrotation
					End Site
					{
						OFFSET 0.000000 22.523010 0.000000
					}
				}
				JOINT newVegas:Right_Collar
				{
					OFFSET -18.625099 8.655792 8.828100
					CHANNELS 3 Xrotation Yrotation Zrotation
					JOINT newVegas:Right_Collar1
					{
						OFFSET -14.783401 10.539993 -1.259500
						CHANNELS 3 Xrotation Yrotation Zrotation
						End Site
						{
							OFFSET 0.000000 18.199631 0.000000
						}
					}
				}
			}
		}
		JOINT newVegas:Belly
		{
			OFFSET 0.000000 -6.540398 9.014299
			CHANNELS 3 Xrotation Yrotation Zrotation
			End Site
			{
				OFFSET 0.000000 11.566666 0.000000
			}
		}
	}
	JOINT newVegas:ElvisFacialAnim_Joint
	{
		OFFSET 1.000000 -95.330101 -8.825800
		CHANNELS 3 Xrotation Yrotation Zrotation
		End Site
		{
			OFFSET 0.000000 35.315800 0.000000
		}
	}
}
MOTION
Frames: 4
Frame Time: 0.033333
-1.490916 90.334152 4.228493 -12.559027 -28.187123 -4.989030 0.000000 -0.000000 -0.000000 -40.098190 13.136972 15.383367 70.791953 -0.147053 2.274831 2.499024 6.049153 3.184217 0.000002 -0.000000 -0.000001 0.000000 0.000000 -0.000000 -15.199877 -2.920330 12.543472 44.305255 -10.348509 -6.089189 -18.917044 0.981294 -8.725065 -0.000000 -0.000000 -0.000000 0.000001 -0.000001 0.000000 18.578043 -8.413585 2.915004 0.722820 -3.446511 -0.081524 0.746554 -3.458617 -0.042653 0.110778 2.330577 1.196421 0.110783 2.330572 1.196422 -0.000000 0.000002 -0.000001 0.110845 2.330576 1.196417 0.110777 2.330582 1.196420 -0.000000 -0.000002 0.000000 -0.000000 0.000002 -0.000000 -37.571064 -4.822511 1.545822 -23.300419 1.316431 -60.151420 -0.000091 -64.391055 -0.000090 -116.705762 5.525369 33.298535 4.709221 9.560373 3.111989 19.473178 -1.474903 7.636906 0.000000 0.000001 -0.000001 -0.212819 3.933727 -36.747135 2.942133 5.078906 -60.144583 -0.000005 -0.000001 -0.000000 0.405909 5.507037 -52.453169 3.387130 5.308621 -65.057456 -0.000001 -0.000002 0.000001 -0.074382 5.736766 -61.061420 4.055036 5.569508 -72.094907 0.000005 0.000001 -0.000001 -6.565547 4.545176 -72.425263 3.299621 5.267198 -64.107814 -0.000003 -0.000002 -0.000000 -0.000000 -0.000000 -0.000001 -0.000000 -0.000000 -0.000001 -0.000000 0.000000 -0.000001 -0.000002 0.000000 0.000002 -0.000002 0.000000 0.000002 -0.000002 0.000000 0.000002 -0.000002 -0.000001 0.000002 -41.176294 -8.605650 -9.942313 -54.143234 67.572216 117.874940 -0.003774 89.569222 0.003222 -60.941789 -10.400061 -29.642331 8.377139 -4.904116 11.021991 21.620183 -18.183917 -18.379213 -0.000003 -0.000000 -0.000001 -0.920034 1.683572 12.434968 0.748127 -2.533439 32.898299 -0.000000 -0.000000 0.000002 3.413054 -7.186254 51.650249 6.296803 -4.359564 110.634667 0.000000 -0.000000 0.000001 -3.349047 -2.600402 57.010561 5.440867 -4.590899 99.698181 0.000001 0.000001 0.000001 -3.996441 -3.303958 64.593850 4.058825 -4.618636 82.610516 0.000002 0.000001 0.000001 -0.000003 0.000002 0.000001 -0.000001 -0.000000 -0.000000 -0.000003 0.000001 0.000001 -0.000000 0.000002 0.000000 -0.000000 0.000003 0.000000 -0.000000 0.000002 0.000000 -0.000000 0.000003 0.000001 0.000001 -0.000001 0.000000 0.000001 -0.000001 0.000000 0.000001 -0.000001 0.000000 0.000001 -0.000001 0.000000 0.000001 -0.000001 0.000000 0.000001 -0.000001 0.000000 0.000001 -0.000001 0.000000 0.000000 0.000001 -0.000000 0.000000 -0.000000 -0.000000 
-1.424410 90.865295 -4.540084 -13.408731 -31.362712 -6.427543 -0.000000 0.000002 0.000000 -35.816559 15.130138 14.880750 76.534879 -0.149283 1.755365 1.002916 3.029140 2.612600 0.000001 0.000001 -0.000000 -0.000003 0.000001 -0.000000 -20.705847 -3.288969 13.858098 38.161493 -5.942077 -3.667154 -3.119182 0.239631 -9.860955 -0.000000 -0.000001 0.000000 0.000001 -0.000004 0.000000 19.165125 -8.405926 2.893326 0.669057 -3.330100 -0.315786 0.693977 -3.351841 -0.277947 0.359564 2.444343 1.336189 0.359588 2.444341 1.336166 0.000001 0.000001 0.000000 0.359571 2.444388 1.336178 0.359542 2.444165 1.336224 0.000001 -0.000001 -0.000001 0.000001 0.000001 0.000000 -37.508049 -4.178572 3.601346 -21.587761 3.529035 -60.597131 -0.000020 -66.429300 -0.000022 -116.388377 4.539243 34.578574 4.709224 9.560375 3.111987 19.473182 -1.474902 7.636905 0.000002 0.000000 -0.000004 0.313089 4.686147 -37.794548 2.949882 5.083324 -60.232003 -0.000001 -0.000001 -0.000000 0.668722 5.716308 -52.620966 3.354482 5.293370 -64.703987 -0.000001 -0.000001 0.000001 0.022473 5.789779 -61.056092 4.019634 5.557981 -71.729711 0.000000 -0.000001 0.000000 -6.706200 4.492894 -72.392089 3.265670 5.250649 -63.737399 -0.000001 -0.000003 -0.000004 -0.000000 0.000001 -0.000001 -0.000000 0.000001 -0.000001 -0.000000 0.000001 -0.000001 -0.000002 -0.000003 0.000001 -0.000002 -0.000003 -0.000000 -0.000002 -0.000003 0.000001 -0.000002 -0.000003 0.000001 -40.988115 -8.607308 -9.018148 -56.215500 67.649267 119.862361 -0.001621 88.692513 0.001506 -62.123671 -11.047646 -27.572673 7.918740 -5.052136 10.688156 22.301425 -17.461134 -18.377300 0.000002 0.000002 -0.000000 -0.750217 1.284122 11.400443 0.747449 -2.532454 32.883304 -0.000000 0.000000 -0.000001 3.334878 -7.091783 52.444897 6.294155 -4.360567 110.599908 0.000000 -0.000000 0.000001 -3.372952 -2.628639 57.327916 5.440765 -4.590891 99.696877 0.000001 0.000001 -0.000001 -4.079952 -3.257785 64.551647 4.041167 -4.616316 82.391185 0.000000 -0.000000 -0.000001 -0.000001 0.000001 -0.000000 0.000001 -0.000001 -0.000001 -0.000001 0.000000 -0.000000 -0.000001 -0.000003 -0.000001 -0.000001 -0.000002 -0.000001 -0.000001 -0.000003 -0.000001 -0.000001 -0.000002 -0.000000 -0.000000 -0.000000 -0.000000 -0.000000 -0.000000 -0.000000 -0.000000 -0.000000 -0.000000 -0.000000 -0.000000 -0.000000 -0.000000 -0.000000 -0.000000 -0.000000 -0.000000 -0.000000 -0.000000 -0.000000 -0.000000 0.000001 0.000003 -0.000000 -0.000000 0.000002 0.000000 
-1.573548 90.928116 -12.944431 -13.176180 -34.371042 -7.046806 -0.000000 0.000001 0.000000 -30.453720 16.046105 13.493724 78.219654 -5.315087 0.942629 -0.105130 0.721695 -4.410089 0.000002 -0.000000 -0.000000 0.000002 0.000001 0.000001 -26.897937 -3.706265 13.866940 31.816725 -3.376969 -1.259677 11.927262 0.611485 -3.804459 -0.000001 -0.000004 -0.000000 -0.000000 -0.000003 -0.000001 18.755185 -8.440837 2.768293 1.191956 -3.352271 -0.333280 1.216026 -3.373303 -0.280381 0.209207 2.571800 1.263144 0.209197 2.571810 1.263147 0.000001 0.000001 -0.000000 0.209205 2.571797 1.263146 0.209350 2.571804 1.263138 0.000000 0.000002 0.000000 0.000001 0.000001 -0.000000 -37.492145 -3.700529 3.573888 -21.276835 7.422394 -59.614356 0.000101 -70.113545 0.000103 -115.487475 4.765260 37.709358 4.709225 9.560374 3.111986 19.473182 -1.474894 7.636904 0.000001 0.000005 -0.000002 0.092021 4.317954 -36.297165 2.949602 5.083160 -60.228854 0.000002 0.000000 -0.000000 0.289875 5.346881 -51.198948 3.305528 5.270061 -64.172373 -0.000004 -0.000000 -0.000001 -0.543363 5.380737 -59.882263 4.027435 5.560545 -71.810109 0.000000 0.000001 -0.000001 -7.194485 4.122654 -71.433629 3.285928 5.260556 -63.958820 -0.000000 0.000000 0.000000 -0.000001 -0.000001 0.000001 -0.000001 -0.000001 0.000001 -0.000001 -0.000001 0.000001 -0.000001 -0.000002 0.000001 -0.000001 -0.000003 0.000002 -0.000001 -0.000002 0.000001 -0.000001 -0.000003 0.000002 -41.422963 -8.099662 -10.943212 -63.803058 66.510094 126.349211 0.001012 87.936452 -0.001120 -64.299182 -10.653961 -26.974157 8.938140 -4.404732 11.557437 21.873423 -17.915656 -18.378950 0.000003 0.000001 0.000001 -0.664770 0.872613 11.329194 0.747034 -2.531787 32.873595 -0.000002 -0.000000 0.000005 3.503684 -7.221774 52.421654 6.289026 -4.362470 110.532439 0.000000 0.000000 0.000000 -3.451234 -2.527971 56.971902 5.440983 -4.590857 99.699588 -0.000000 -0.000001 -0.000001 -4.116195 -3.174370 64.103572 4.038113 -4.615895 82.353107 -0.000002 -0.000002 -0.000000 0.000004 0.000003 0.000000 -0.000001 0.000001 -0.000001 0.000004 0.000002 0.000001 -0.000001 0.000001 0.000000 -0.000001 0.000002 0.000000 -0.000001 0.000001 0.000000 -0.000001 0.000002 0.000001 -0.000000 -0.000001 -0.000000 -0.000000 -0.000001 -0.000000 -0.000000 -0.000001 -0.000000 -0.000000 -0.000001 -0.000000 -0.000000 -0.000001 -0.000000 -0.000000 -0.000001 -0.000000 -0.000000 -0.000001 -0.000000 -0.000000 -0.000002 0.000000 -0.000000 0.000001 0.000000 
-2.003106 90.287956 -21.042747 -11.476115 -36.975974 -6.900055 -0.000000 -0.000000 0.000000 -24.877788 16.674486 10.773893 74.164325 -10.909054 0.144347 -0.449425 -1.480937 -11.453445 0.000001 -0.000003 -0.000001 -0.000000 0.000001 0.000002 -30.043666 -2.459733 10.120122 19.952466 -3.178056 0.245089 28.171525 4.041495 17.388014 -0.000001 0.000001 -0.000003 -0.000002 -0.000001 -0.000001 17.348047 -8.132851 3.121015 1.892911 -3.323156 -0.271991 1.914852 -3.343485 -0.198360 -0.467018 2.649076 1.060957 -0.467021 2.649102 1.060952 -0.000000 -0.000001 -0.000000 -0.467086 2.649096 1.060959 -0.466874 2.649087 1.060946 -0.000000 0.000001 -0.000000 -0.000000 -0.000001 -0.000000 -37.498428 -3.509610 1.610614 -22.736183 11.235164 -57.586063 0.000020 -73.934858 0.000015 -114.145336 6.146401 41.021484 4.709225 9.560371 3.111986 19.473184 -1.474900 7.636909 -0.000000 -0.000000 -0.000003 0.030961 4.281815 -37.104572 2.942434 5.079078 -60.148060 -0.000000 -0.000000 0.000000 0.308104 5.423940 -52.310537 3.292209 5.263598 -64.026979 -0.000003 -0.000001 0.000001 -0.542415 5.442945 -60.630701 4.108599 5.586442 -72.645899 -0.000002 -0.000001 0.000000 -7.150806 4.322954 -72.272588 3.351083 5.291765 -64.667316 -0.000002 -0.000003 -0.000000 0.000001 0.000004 0.000003 0.000001 0.000004 0.000003 0.000001 0.000004 0.000003 0.000001 0.000001 -0.000001 0.000001 -0.000000 -0.000003 0.000001 0.000001 -0.000001 0.000001 0.000001 0.000000 -42.110859 -7.409206 -14.205847 -71.953031 65.058392 132.709906 -0.001047 87.628950 0.001050 -66.229366 -8.657249 -27.433448 9.907470 -3.798954 12.303710 20.943703 -18.898664 -18.375589 0.000000 0.000000 0.000003 -0.784031 1.038600 12.453189 0.747298 -2.532184 32.879656 -0.000000 0.000000 0.000001 3.818051 -7.519315 51.389397 6.288066 -4.362841 110.520193 0.000001 -0.000000 0.000002 -3.481064 -2.439796 56.488185 5.437925 -4.591385 99.661503 0.000001 0.000001 -0.000001 -4.032806 -3.193322 63.953206 4.048243 -4.617263 82.478871 -0.000000 0.000002 -0.000000 0.000001 0.000000 0.000000 0.000001 -0.000000 -0.000000 0.000001 -0.000000 0.000000 -0.000001 0.000003 -0.000001 -0.000001 0.000003 -0.000001 -0.000001 0.000003 -0.000001 -0.000001 0.000003 -0.000000 0.000000 -0.000002 0.000000 0.000000 -0.000002 0.000000 0.000000 -0.000002 0.000000 0.000000 -0.000002 0.000000 0.000000 -0.000002 0.000000 0.000000 -0.000002 0.000000 0.000000 -0.000002 0.000000 -0.000000 -0.000003 0.000000 -0.000000 -0.000000 0.000000 
